<?xml version="1.0" standalone="no"?>
<!DOCTYPE svg PUBLIC "-//W3C//DTD SVG 20010904//EN"
 "http://www.w3.org/TR/2001/REC-SVG-20010904/DTD/svg10.dtd">
<svg version="1.0" xmlns="http://www.w3.org/2000/svg"
 width="33.000000pt" height="30.000000pt" viewBox="0 0 33.000000 30.000000"
 preserveAspectRatio="xMidYMid meet">
<metadata>
Created by potrace 1.10, written by Peter Selinger 2001-2011
</metadata>
<g transform="translate(0.000000,30.000000) scale(0.100000,-0.100000)"
fill="#000000" stroke="none">
<path d="M42 237 c-12 -13 -22 -30 -22 -38 0 -8 38 -52 83 -97 76 -76 87 -83
118 -80 l34 3 3 93 c2 76 0 97 -15 117 -24 32 -34 31 -58 -5 -11 -16 -24 -30
-28 -30 -5 0 -20 14 -34 30 -30 36 -52 38 -81 7z"/>
</g>
</svg>
