<svg xmlns:xlink="http://www.w3.org/1999/xlink" data-brackets-id="1944" xmlns="http://www.w3.org/2000/svg" viewBox="0 0 75 41" width="936.59"  height="512" >
                        <path data-brackets-id="1945" fill="#E3E6E8" d="M67.8 5.77207C63.46 2.05207 57.61 0.312073 51.99 0.0520728C46.7386 -0.275133 41.5107 0.990018 36.99 3.68207C36.65 3.90207 36.31 4.13207 35.99 4.37207C37.2238 3.98545 38.5072 3.77997 39.8 3.76207C42.08 3.76207 43.93 5.32207 43.93 7.27207C43.93 9.22207 42.1 10.8021 39.82 10.8021C36.82 10.8021 33.9 9.80207 30.99 9.26207C27.9169 8.64535 24.7939 8.31063 21.66 8.26207C11.66 8.26207 8.56998 13.4321 8.56998 13.4321L9.42998 12.7821C10.2795 12.0794 11.2782 11.5801 12.35 11.3221C12.8397 11.234 13.3448 11.3178 13.7799 11.5591C14.215 11.8005 14.5534 12.1846 14.738 12.6467C14.9226 13.1087 14.942 13.6203 14.793 14.095C14.6439 14.5698 14.3356 14.9785 13.92 15.2521C10.16 17.5921 4.03998 16.6321 0.919983 25.1721C1.34868 24.2958 1.99621 23.5449 2.79998 22.9921C4.86144 21.6253 7.22779 20.7873 9.68998 20.5521C13.0213 20.0213 16.4265 20.1881 19.69 21.0421C21.55 21.5521 23.69 22.2521 24.78 24.0421C25.68 25.5021 25.69 27.5021 23.96 28.3321C22.6637 28.8839 21.2559 29.1237 19.85 29.0321H19.79C23.4056 29.511 26.9529 30.4104 30.36 31.7121C36.2 34.2021 41.63 37.7121 47.84 39.2421C52.5966 40.5551 57.6423 40.37 62.29 38.7121C65.4336 37.4416 68.1972 35.3832 70.3146 32.735C72.4321 30.0869 73.8321 26.9382 74.38 23.5921C74.8565 20.3087 74.5041 16.9582 73.3548 13.8458C72.2056 10.7334 70.296 7.95789 67.8 5.77207V5.77207ZM24.8 23.8721L24.74 23.8121L24.8 23.8721ZM57.15 29.0521C53.0499 28.9004 49.0383 27.8162 45.42 25.8821C37.81 22.1821 34.72 20.8821 34.72 20.6621C34.72 20.4421 39.27 22.2321 46.92 18.0421C51.34 15.6221 53.02 13.0421 57.1 13.0421C59.2217 13.0421 61.2565 13.8849 62.7568 15.3852C64.2571 16.8855 65.1 18.9203 65.1 21.0421C65.1 23.1638 64.2571 25.1986 62.7568 26.6989C61.2565 28.1992 59.2217 29.0421 57.1 29.0421L57.15 29.0521Z"></path></svg>