 <svg  version="1.0" xmlns="http://www.w3.org/2000/svg"  width="18.000000pt" height="16.000000pt" viewBox="0 0 18.000000 16.000000"  preserveAspectRatio="xMidYMid meet">  <g transform="translate(0.000000,16.000000) scale(0.100000,-0.100000)" fill="#c80f59" stroke="none"> <path d="M10 125 c0 -14 5 -25 10 -25 6 0 10 7 10 15 0 8 7 15 15 15 8 0 15 5 15 10 0 6 -11 10 -25 10 -20 0 -25 -5 -25 -25z"/> <path d="M100 140 c0 -5 7 -10 15 -10 8 0 15 -7 15 -15 0 -8 5 -15 10 -15 6 0 10 11 10 25 0 20 -5 25 -25 25 -14 0 -25 -4 -25 -10z"/> <path d="M10 35 c0 -20 5 -25 25 -25 14 0 25 5 25 10 0 6 -7 10 -15 10 -8 0 -15 7 -15 15 0 8 -4 15 -10 15 -5 0 -10 -11 -10 -25z"/> <path d="M130 45 c0 -8 -7 -15 -15 -15 -8 0 -15 -4 -15 -10 0 -5 11 -10 25 -10 20 0 25 5 25 25 0 14 -4 25 -10 25 -5 0 -10 -7 -10 -15z"/> </g> </svg> 