 <svg  version="1.0" xmlns="http://www.w3.org/2000/svg"  width="18.000000pt" height="16.000000pt" viewBox="0 0 18.000000 16.000000"  preserveAspectRatio="xMidYMid meet">  <g transform="translate(0.000000,16.000000) scale(0.050000,-0.050000)" fill="#c80f59" stroke="none"> <path d="M20 250 c0 -27 9 -50 20 -50 11 0 20 14 20 30 0 17 14 30 30 30 17 0 30 9 30 20 0 11 -22 20 -50 20 -40 0 -50 -10 -50 -50z"/> <path d="M200 280 c0 -11 14 -20 30 -20 17 0 30 -13 30 -30 0 -16 9 -30 20 -30 11 0 20 23 20 50 0 40 -10 50 -50 50 -27 0 -50 -9 -50 -20z"/> <path d="M20 70 c0 -40 10 -50 50 -50 28 0 50 9 50 20 0 11 -13 20 -30 20 -16 0 -30 14 -30 30 0 17 -9 30 -20 30 -11 0 -20 -22 -20 -50z"/> <path d="M260 90 c0 -16 -13 -30 -30 -30 -16 0 -30 -9 -30 -20 0 -11 23 -20 50 -20 40 0 50 10 50 50 0 28 -9 50 -20 50 -11 0 -20 -13 -20 -30z"/> </g> </svg> 