 <svg  version="1.0" xmlns="http://www.w3.org/2000/svg"  width="48.000000pt" height="54.000000pt" viewBox="0 0 48.000000 54.000000"  preserveAspectRatio="xMidYMid meet">  <g transform="translate(0.000000,54.000000) scale(0.100000,-0.100000)" fill="#2b264c" stroke="none"> <path d="M82 467 c-23 -23 -42 -50 -42 -59 0 -8 -7 -21 -15 -28 -23 -19 -21 -136 2 -149 12 -6 17 -20 15 -42 -2 -24 5 -40 25 -61 32 -33 58 -36 73 -8 13 24 32 17 28 -10 -4 -28 70 -100 102 -100 47 0 64 21 57 71 -6 43 -5 44 57 104 61 59 62 61 64 120 l2 59 -72 73 -72 73 -91 0 -91 0 -42 -43z m270 -54 c44 -45 47 -52 50 -108 3 -59 -14 -92 -20 -40 -2 18 -9 25 -20 23 -13 -3 -17 -15 -17 -53 0 -57 -19 -78 -23 -25 -4 53 -10 64 -26 51 -10 -8 -12 -34 -8 -106 4 -83 3 -95 -12 -101 -11 -4 -28 3 -48 22 -29 28 -30 31 -24 97 6 66 5 69 -23 98 -32 32 -52 36 -70 15 -9 -11 -4 -19 24 -42 42 -33 44 -51 9 -83 -33 -31 -61 -18 -56 25 2 18 -3 33 -15 41 -14 11 -17 25 -15 76 2 36 10 69 18 78 8 8 14 22 14 29 0 7 7 22 17 32 13 15 32 18 107 18 l92 0 46 -47z"/> </g> </svg> 