<?xml version="1.0" standalone="no"?>
<!DOCTYPE svg PUBLIC "-//W3C//DTD SVG 20010904//EN"
 "http://www.w3.org/TR/2001/REC-SVG-20010904/DTD/svg10.dtd">
<svg version="1.0" xmlns="http://www.w3.org/2000/svg"
 width="500.000000pt" height="500.000000pt" viewBox="0 0 500.000000 500.000000"
 preserveAspectRatio="xMidYMid meet">
<metadata>
Created by potrace 1.14, written by Peter Selinger 2001-2017
</metadata>
<g transform="translate(0.000000,500.000000) scale(0.100000,-0.100000)"
fill="#000000" stroke="none">
<path d="M0 2500 l0 -2500 2500 0 2500 0 0 2500 0 2500 -2500 0 -2500 0 0
-2500z m2897 1685 c140 -19 229 -40 384 -94 143 -50 248 -97 255 -116 4 -11
-188 -558 -202 -573 -1 -2 -64 22 -139 53 -209 87 -296 106 -503 112 -317 10
-455 -34 -518 -163 -55 -112 -25 -247 72 -333 63 -56 191 -118 389 -191 437
-161 645 -267 794 -406 128 -118 202 -255 241 -444 19 -92 21 -128 17 -285 -5
-211 -17 -265 -87 -410 -141 -289 -415 -453 -854 -511 -146 -20 -495 -22 -641
-5 -264 32 -507 98 -688 186 l-96 46 49 137 c111 314 158 443 162 447 3 3 43
-13 90 -35 199 -93 403 -144 645 -160 295 -20 491 20 592 121 49 50 71 112 71
203 0 92 -32 163 -103 230 -69 64 -275 164 -527 255 -323 116 -455 180 -593
290 -148 118 -250 269 -293 434 -56 217 -30 486 66 682 139 282 426 469 816
529 125 20 454 20 601 1z"/>
</g>
</svg>
